<?xml version="1.0" encoding="utf-8"?>
<!-- Generator: Adobe Illustrator 16.0.0, SVG Export Plug-In . SVG Version: 6.00 Build 0)  -->
<!DOCTYPE svg PUBLIC "-//W3C//DTD SVG 1.1//EN" "http://www.w3.org/Graphics/SVG/1.1/DTD/svg11.dtd">
<svg version="1.1" id="Capa_1" xmlns="http://www.w3.org/2000/svg" xmlns:xlink="http://www.w3.org/1999/xlink" x="0px" y="0px"
	 width="366px" height="179px" viewBox="0 0 366 179" enable-background="new 0 0 366 179" xml:space="preserve">
<path fill="#EE8D20" d="M107.196,119.734l-6.907-7.123l-0.016-0.027c-5.475,5.063-12.774,8.182-20.819,8.182
	c-6.495,0-12.509-2.029-17.47-5.47l1.542,16.002l27.163-2.003l16.507-9.054V119.734z"/>
<path fill="#EE8D20" d="M48.88,92.728l-26.723,4.595l7.012,36.508l28.167-2.076l-4.554-26.516
	C50.643,101.488,49.271,97.252,48.88,92.728"/>
<path fill="#EE8D20" d="M19.799,84.805l29-2.752l-6.467-37.646l0.293-0.039c-0.075-0.015-0.149-0.027-0.224-0.042l-29.732,3.599
	l7.328,38.152l0.018-0.002L19.799,84.805z"/>
<path fill="#EE8D20" d="M79.454,59.349c7.996,0,15.254,3.081,20.718,8.089l7.045-7.196l0.008-23.762l-52.227,6.322l2.488,25.82
	C63.063,62.908,70.837,59.349,79.454,59.349"/>
<path fill="#B6560E" d="M48.815,91.439L21.718,96.1l-1.703-10.024l-0.018,0.002l-0.103,0.01l1.918,11.294l0.345-0.059l26.723-4.594
	C48.843,92.302,48.834,91.87,48.815,91.439"/>
<path fill="#B6560E" d="M60.592,114.255l1.651,17.138l1.283-0.095l-1.542-16.002C61.506,114.966,61.048,114.611,60.592,114.255"/>
<path fill="#B6560E" d="M56.318,69.907c0.38-0.437,0.764-0.871,1.168-1.285l-2.488-25.82l-0.002-0.016l-0.812,0.109
	c-0.15,0.087-0.297,0.168-0.445,0.25L56.318,69.907z"/>
<path fill="#00A5DE" d="M52.781,105.238l4.555,26.516l4.907-0.362l-1.652-17.136C57.436,111.792,54.776,108.735,52.781,105.238"/>
<path fill="#00A5DE" d="M42.333,44.408l6.466,37.645L19.8,84.805l0.215,1.271l1.703,10.022l27.097-4.658
	c-0.021-0.462-0.07-0.917-0.07-1.384c0-7.719,2.87-14.755,7.573-20.15l-2.579-26.761c0.148-0.083,0.295-0.164,0.445-0.251
	c5.328-3.089,11.85-8.905,14.956-13.784c5.031-7.891,5.427-17.292,0.888-21.003c-4.535-3.711-12.292-0.322-17.318,7.573
	c-2.132,3.347-4.158,8.54-5.519,13.633c-3-5.447-7.068-10.988-10.546-13.953c-7.183-6.126-15.606-6.364-18.809-0.533
	c-3.199,5.83,0.029,15.519,7.214,21.644c4.178,3.562,11.489,6.696,17.351,7.855c0.076,0.015,0.149,0.027,0.224,0.042L42.333,44.408z
	 M55.866,18.261c3.097-4.858,7.872-6.946,10.663-4.66c2.792,2.281,2.553,8.071-0.542,12.929
	c-3.096,4.861-11.818,11.509-13.926,9.782C49.951,34.588,52.77,23.12,55.866,18.261 M27.277,32.414
	c-4.424-3.771-6.409-9.738-4.437-13.323c1.973-3.592,7.154-3.445,11.577,0.327c4.422,3.771,10.588,14.589,9.101,17.298
	C42.03,39.429,31.701,36.188,27.277,32.414"/>
<path fill="#0067B0" d="M100.377,67.716c-2.579-2.411-5.509-4.32-8.79-5.726c-3.785-1.574-7.735-2.361-11.854-2.361
	s-8.07,0.787-11.854,2.361c-3.65,1.574-6.881,3.767-9.694,6.58s-4.99,6.027-6.53,9.644c-1.574,3.817-2.361,7.769-2.361,11.854
	c0,4.151,0.787,8.119,2.361,11.902c1.54,3.651,3.717,6.866,6.53,9.645c2.813,2.848,6.044,5.04,9.694,6.58
	c3.784,1.574,7.735,2.36,11.854,2.36s8.069-0.786,11.854-2.36c3.248-1.405,6.178-3.298,8.79-5.676l7.534,7.534
	c-3.616,3.349-7.685,5.995-12.205,7.936c-5.091,2.144-10.415,3.216-15.973,3.216c-5.559,0-10.9-1.072-16.023-3.216
	c-4.89-2.074-9.242-5.005-13.06-8.79c-3.784-3.816-6.714-8.187-8.79-13.108c-2.143-5.09-3.214-10.432-3.214-16.022
	c0-5.56,1.071-10.884,3.214-15.974c2.076-4.922,5.006-9.275,8.79-13.06c3.818-3.783,8.17-6.713,13.06-8.79
	c5.123-2.142,10.464-3.214,16.023-3.214c5.558,0,10.882,1.072,15.973,3.214c4.553,1.909,8.622,4.555,12.205,7.937L100.377,67.716z"
	/>
<path fill="#0067B0" d="M137.195,131.204c-6.429,0-11.904-2.275-16.425-6.831c-4.554-4.521-6.831-9.995-6.831-16.425V83.989h11.201
	v23.959c0,3.35,1.172,6.212,3.516,8.589c2.411,2.379,5.274,3.566,8.589,3.566c3.316,0,6.179-1.188,8.59-3.566
	c2.343-2.377,3.516-5.239,3.516-8.589V83.989h11.2v23.959c0,6.43-2.277,11.904-6.831,16.425c-4.52,4.556-9.995,6.831-16.424,6.831
	H137.195z"/>
<path fill="#0067B0" d="M214.196,83.99c5.391,0,9.978,1.908,13.763,5.726c3.817,3.816,5.726,8.422,5.726,13.813v27.676h-11v-27.676
	c0-2.344-0.837-4.352-2.512-6.026c-1.641-1.642-3.634-2.462-5.977-2.462c-2.345,0-4.337,0.82-5.979,2.462
	c-1.674,1.675-2.511,3.683-2.511,6.026v27.676h-11.15v-27.676c0-2.344-0.821-4.352-2.462-6.026
	c-1.675-1.642-3.684-2.462-6.026-2.462c-2.312,0-4.304,0.82-5.977,2.462c-1.642,1.675-2.462,3.683-2.462,6.026v27.676h-11.05
	v-27.676c0-5.391,1.909-9.996,5.726-13.813c3.817-3.817,8.405-5.726,13.763-5.726c5.524,0,10.212,1.992,14.063,5.978
	C203.982,85.982,208.671,83.99,214.196,83.99"/>
<path fill="#0067B0" d="M239.813,107.597c0-6.529,2.277-12.088,6.831-16.676c4.621-4.653,10.196-6.981,16.727-6.981
	c6.496,0,12.037,2.328,16.626,6.981c4.653,4.588,6.981,10.146,6.981,16.676c0,6.497-2.328,12.055-6.981,16.676
	c-4.589,4.621-10.13,6.933-16.626,6.933c-4.621,0-8.773-1.156-12.457-3.467v8.237c0,7.199,1.959,12.323,5.877,15.37
	c2.243,1.741,4.755,2.646,7.534,2.713l-0.05,5.575v5.526c-5.727,0-10.867-1.993-15.421-5.979
	c-6.027-5.223-9.041-12.959-9.041-23.206V107.597z M263.37,95.19c-3.416,0-6.347,1.205-8.79,3.616
	c-2.411,2.445-3.616,5.375-3.616,8.79c0,3.383,1.205,6.296,3.616,8.74c2.443,2.412,5.374,3.617,8.79,3.617
	c3.382,0,6.295-1.205,8.739-3.617c2.378-2.444,3.566-5.357,3.566-8.74c0-3.415-1.188-6.345-3.566-8.79
	C269.665,96.396,266.752,95.19,263.37,95.19"/>
<rect x="293.005" y="49.031" fill="#0067B0" width="11.101" height="82.174"/>
<path fill="#0067B0" d="M333.841,131.204c-2.98,0-5.86-0.534-8.639-1.607c-2.881-1.137-5.425-2.762-7.635-4.872
	c-2.345-2.175-4.137-4.721-5.375-7.634c-1.272-2.746-1.959-5.625-2.06-8.641v-0.753c0-3.014,0.535-5.894,1.607-8.64
	c1.139-2.879,2.745-5.424,4.822-7.634c2.21-2.344,4.771-4.135,7.685-5.374c2.846-1.272,5.81-1.96,8.891-2.06h0.503
	c2.979,0,5.859,0.553,8.639,1.657c2.846,1.138,5.392,2.763,7.635,4.872c2.679,2.578,5.225,6.815,7.635,12.707l-31.644,13.914
	c1.037,0.837,2.143,1.491,3.314,1.959c1.473,0.57,2.964,0.854,4.471,0.854h0.502c1.541-0.066,3.047-0.418,4.521-1.055
	c1.508-0.67,2.847-1.606,4.019-2.812c1.038-1.206,1.875-2.529,2.512-3.97l10.447,4.02c-1.139,2.846-2.746,5.391-4.821,7.634
	c-2.177,2.344-4.722,4.136-7.634,5.374c-2.781,1.274-5.678,1.959-8.691,2.06H333.841z M333.339,95.24
	c-1.574,0.067-3.098,0.419-4.571,1.056c-1.575,0.703-2.93,1.641-4.068,2.813c-1.004,1.205-1.825,2.528-2.461,3.968
	c-0.502,1.273-0.787,2.545-0.854,3.817l20.143-8.84c-1.006-0.803-2.095-1.457-3.266-1.959c-1.541-0.569-3.114-0.854-4.722-0.854
	H333.339z"/>
<path fill="#00A5DE" d="M82.396,82.713c2.237,0,4.14,0.792,5.71,2.375c1.583,1.584,2.375,3.494,2.375,5.73V102.3h-4.563V90.818
	c0-0.972-0.348-1.806-1.042-2.5c-0.681-0.681-1.507-1.021-2.48-1.021c-0.972,0-1.799,0.341-2.479,1.021
	c-0.695,0.694-1.042,1.528-1.042,2.5V102.3H74.25V90.818c0-0.972-0.341-1.806-1.021-2.5c-0.695-0.681-1.529-1.021-2.501-1.021
	c-0.959,0-1.786,0.341-2.48,1.021c-0.681,0.694-1.021,1.528-1.021,2.5V102.3h-4.584V90.818c0-2.236,0.791-4.146,2.375-5.73
	c1.584-1.583,3.487-2.375,5.71-2.375c2.292,0,4.237,0.826,5.835,2.479C78.16,83.539,80.104,82.713,82.396,82.713"/>
<path fill="#00A5DE" d="M97.921,87.693c-0.555,0.569-1.229,0.854-2.021,0.854c-0.806,0-1.493-0.285-2.063-0.854
	c-0.57-0.584-0.854-1.271-0.854-2.063c0-0.806,0.284-1.493,0.854-2.063c0.57-0.568,1.257-0.854,2.063-0.854
	c0.792,0,1.466,0.285,2.021,0.854c0.57,0.57,0.855,1.258,0.855,2.063C98.776,86.422,98.491,87.109,97.921,87.693 M98.192,102.3
	h-4.605V90.631h4.605V102.3z"/>
<path fill="#88868B" d="M34.196,160.682v0.036c0,1.159,0.393,2.131,1.179,2.917c0.786,0.786,1.715,1.18,2.786,1.18
	c1.064,0,1.997-0.401,2.798-1.202c0.112-0.112,0.326-0.362,0.643-0.75l2.025,0.713c-0.302,0.509-0.651,0.957-1.048,1.346
	c-1.207,1.215-2.679,1.822-4.418,1.822c-1.723,0-3.181-0.597-4.376-1.792s-1.792-2.606-1.792-4.233c0-1.644,0.597-3.061,1.792-4.251
	s2.653-1.786,4.376-1.786c1.739,0,3.211,0.604,4.418,1.81c1.04,1.048,1.56,2.446,1.56,4.191H34.196z M34.577,158.801h7.133
	c-0.508-1.477-1.691-2.215-3.549-2.215C36.296,156.586,35.101,157.324,34.577,158.801"/>
<rect x="45.878" y="149.322" fill="#88868B" width="2.155" height="17.136"/>
<path fill="#88868B" d="M61.559,157.193c-0.984,0.15-1.746,0.541-2.286,1.173s-0.81,1.424-0.81,2.375v5.717h-2.155v-10.885h2.155
	v1.549c0.318-0.85,1-1.441,2.048-1.774L61.559,157.193z"/>
<path fill="#88868B" d="M65.001,160.682v0.036c0,1.159,0.393,2.131,1.179,2.917s1.715,1.18,2.786,1.18
	c1.064,0,1.997-0.401,2.798-1.202c0.112-0.112,0.326-0.362,0.643-0.75l2.025,0.713c-0.302,0.509-0.651,0.957-1.048,1.346
	c-1.207,1.215-2.679,1.822-4.418,1.822c-1.723,0-3.181-0.597-4.376-1.792c-1.195-1.195-1.792-2.606-1.792-4.233
	c0-1.644,0.597-3.061,1.792-4.251c1.195-1.19,2.653-1.786,4.376-1.786c1.739,0,3.211,0.604,4.418,1.81
	c1.04,1.048,1.56,2.446,1.56,4.191H65.001z M65.382,158.801h7.133c-0.508-1.477-1.691-2.215-3.549-2.215
	C67.101,156.586,65.906,157.324,65.382,158.801"/>
<path fill="#88868B" d="M85.886,164.612c-0.746,1.42-1.988,2.131-3.727,2.131c-1.723,0-3.181-0.597-4.376-1.792
	c-1.195-1.195-1.792-2.606-1.792-4.233c0-1.644,0.597-3.059,1.792-4.245c1.195-1.187,2.653-1.779,4.376-1.779
	c1.731,0,3.025,0.718,3.882,2.154v-1.274h2.155v8.192c0,1.597-0.575,2.966-1.726,4.108c-1.207,1.215-2.675,1.823-4.406,1.823
	s-3.187-0.592-4.37-1.775c-0.27-0.277-0.612-0.689-1.024-1.238l2.06-0.751c0.278,0.35,0.472,0.572,0.583,0.667
	c0.77,0.778,1.687,1.167,2.751,1.167C84.31,167.767,85.585,166.715,85.886,164.612 M86.029,159.801
	c-0.159-0.771-0.532-1.453-1.119-2.048c-0.77-0.778-1.687-1.167-2.751-1.167c-1.071,0-2,0.397-2.786,1.191
	c-0.786,0.794-1.179,1.773-1.179,2.94c0,1.159,0.393,2.133,1.179,2.923c0.786,0.79,1.715,1.185,2.786,1.185
	c1.064,0,1.996-0.4,2.798-1.202c0.556-0.555,0.913-1.215,1.072-1.976V159.801z"/>
<path fill="#88868B" d="M102.141,166.457h-2.155v-1.904c-0.85,1.46-2.143,2.19-3.882,2.19c-1.722,0-3.181-0.598-4.376-1.792
	c-1.195-1.194-1.792-2.605-1.792-4.232c0-1.645,0.597-3.062,1.792-4.251c1.195-1.192,2.654-1.787,4.376-1.787
	c1.739,0,3.032,0.722,3.882,2.167v-1.274h2.155V166.457z M99.985,161.575v-1.738c-0.151-0.785-0.512-1.465-1.083-2.036
	c-0.802-0.811-1.735-1.214-2.799-1.214c-1.072,0-2,0.396-2.786,1.189s-1.179,1.775-1.179,2.942c0,1.159,0.393,2.13,1.179,2.917
	c0.786,0.786,1.714,1.178,2.786,1.178c1.064,0,1.997-0.4,2.799-1.202C99.474,163.039,99.834,162.36,99.985,161.575"/>
<rect x="104.511" y="149.322" fill="#88868B" width="2.155" height="17.136"/>
<path fill="#88868B" d="M115.001,154.681c1.739,0,3.199,0.595,4.382,1.786c1.183,1.19,1.774,2.607,1.774,4.251
	c0,1.627-0.591,3.038-1.774,4.233c-1.183,1.194-2.643,1.792-4.382,1.792c-1.723,0-3.181-0.598-4.376-1.792
	c-1.195-1.195-1.792-2.606-1.792-4.233c0-1.644,0.597-3.061,1.792-4.251C111.82,155.275,113.278,154.681,115.001,154.681
	 M112.215,157.776c-0.786,0.794-1.179,1.774-1.179,2.941c0,1.16,0.393,2.131,1.179,2.917c0.786,0.787,1.714,1.179,2.786,1.179
	c1.064,0,1.991-0.392,2.781-1.179c0.789-0.786,1.184-1.757,1.184-2.917c0-1.167-0.395-2.147-1.184-2.941
	c-0.79-0.794-1.717-1.189-2.781-1.189C113.929,156.587,113.001,156.982,112.215,157.776"/>
<path fill="#88868B" d="M130.886,160.682v0.036c0,1.159,0.393,2.131,1.179,2.917c0.786,0.786,1.715,1.18,2.786,1.18
	c1.064,0,1.997-0.401,2.798-1.202c0.112-0.112,0.326-0.362,0.643-0.75l2.025,0.713c-0.302,0.509-0.651,0.957-1.048,1.346
	c-1.207,1.215-2.679,1.822-4.418,1.822c-1.723,0-3.181-0.597-4.376-1.792s-1.792-2.606-1.792-4.233c0-1.644,0.597-3.061,1.792-4.251
	s2.653-1.786,4.376-1.786c1.739,0,3.211,0.604,4.418,1.81c1.04,1.048,1.56,2.446,1.56,4.191H130.886z M131.267,158.801h7.133
	c-0.508-1.477-1.691-2.215-3.549-2.215C132.985,156.586,131.791,157.324,131.267,158.801"/>
<path fill="#88868B" d="M145.234,161.027c-0.81-0.443-1.365-0.816-1.667-1.119c-0.587-0.588-0.881-1.263-0.881-2.024
	c0-0.753,0.286-1.42,0.857-2.001c0.572-0.579,1.286-0.869,2.144-0.869c0.857,0,1.547,0.267,2.071,0.798
	c0.54,0.54,0.81,1.131,0.81,1.775v0.333l-1.929,0.786c-0.119-0.897-0.256-1.426-0.41-1.584c-0.156-0.158-0.336-0.239-0.542-0.239
	c-0.207,0-0.401,0.092-0.584,0.274c-0.182,0.183-0.274,0.426-0.274,0.727c0,0.302,0.103,0.556,0.31,0.762
	c0.135,0.144,0.448,0.369,0.941,0.679c0.897,0.492,1.551,0.94,1.965,1.347c0.65,0.667,0.976,1.453,0.976,2.356
	c0,0.93-0.338,1.735-1.013,2.418c-0.674,0.684-1.52,1.023-2.536,1.023c-1.016,0-1.863-0.34-2.542-1.023
	c-0.679-0.683-1.018-1.536-1.018-2.561l2.143-0.536c0,0.921,0.147,1.529,0.441,1.823c0.294,0.294,0.619,0.439,0.976,0.439
	c0.358,0,0.685-0.146,0.983-0.439c0.298-0.294,0.446-0.675,0.446-1.145c0-0.452-0.159-0.833-0.476-1.143
	C146.234,161.703,145.838,161.417,145.234,161.027"/>
<path fill="#88868B" d="M151.01,155.573h2.155v1.251c0.849-1.421,2.139-2.131,3.87-2.131c1.73,0,3.191,0.593,4.382,1.779
	c1.19,1.187,1.786,2.602,1.786,4.245c0,1.627-0.596,3.038-1.786,4.233c-1.191,1.195-2.652,1.792-4.382,1.792
	c-1.731,0-3.021-0.718-3.87-2.155v5.656h-2.155V155.573z M153.165,159.801v1.834c0.143,0.771,0.512,1.448,1.107,2.036
	c0.778,0.771,1.699,1.154,2.763,1.154s1.99-0.395,2.78-1.185s1.185-1.764,1.185-2.923c0-1.167-0.395-2.146-1.185-2.94
	s-1.716-1.191-2.78-1.191s-2.001,0.404-2.81,1.214C153.661,158.364,153.308,159.03,153.165,159.801"/>
<path fill="#88868B" d="M166.74,160.682v0.036c0,1.159,0.393,2.131,1.179,2.917c0.786,0.786,1.715,1.18,2.786,1.18
	c1.064,0,1.997-0.401,2.798-1.202c0.112-0.112,0.326-0.362,0.643-0.75l2.025,0.713c-0.302,0.509-0.651,0.957-1.048,1.346
	c-1.207,1.215-2.679,1.822-4.418,1.822c-1.723,0-3.181-0.597-4.376-1.792s-1.792-2.606-1.792-4.233c0-1.644,0.597-3.061,1.792-4.251
	s2.653-1.786,4.376-1.786c1.739,0,3.211,0.604,4.418,1.81c1.04,1.048,1.56,2.446,1.56,4.191H166.74z M167.121,158.801h7.133
	c-0.508-1.477-1.691-2.215-3.549-2.215C168.84,156.586,167.645,157.324,167.121,158.801"/>
<path fill="#88868B" d="M183.279,157.193c-0.983,0.15-1.746,0.541-2.286,1.173s-0.81,1.424-0.81,2.375v5.717h-2.155v-10.885h2.155
	v1.549c0.318-0.85,1-1.441,2.048-1.774L183.279,157.193z"/>
<path fill="#88868B" d="M196.984,166.457h-2.155v-1.904c-0.85,1.46-2.143,2.19-3.882,2.19c-1.722,0-3.181-0.598-4.375-1.792
	c-1.195-1.194-1.792-2.605-1.792-4.232c0-1.645,0.597-3.062,1.792-4.251c1.194-1.192,2.653-1.787,4.375-1.787
	c1.739,0,3.032,0.722,3.882,2.167v-1.274h2.155V166.457z M194.829,161.575v-1.738c-0.15-0.785-0.512-1.465-1.083-2.036
	c-0.802-0.811-1.735-1.214-2.799-1.214c-1.071,0-2,0.396-2.786,1.189s-1.179,1.775-1.179,2.942c0,1.159,0.393,2.13,1.179,2.917
	c0.786,0.786,1.715,1.178,2.786,1.178c1.063,0,1.997-0.4,2.799-1.202C194.317,163.039,194.679,162.36,194.829,161.575"/>
<path fill="#88868B" d="M211.131,166.457h-2.155v-1.904c-0.85,1.46-2.143,2.19-3.882,2.19c-1.722,0-3.181-0.598-4.376-1.792
	c-1.194-1.194-1.792-2.605-1.792-4.232c0-1.645,0.598-3.062,1.792-4.251c1.195-1.192,2.654-1.787,4.376-1.787
	c1.739,0,3.032,0.722,3.882,2.167v-7.525h2.155V166.457z M208.976,161.575v-1.738c-0.15-0.785-0.512-1.465-1.083-2.036
	c-0.802-0.811-1.735-1.214-2.799-1.214c-1.071,0-2,0.396-2.786,1.189s-1.179,1.775-1.179,2.942c0,1.159,0.393,2.13,1.179,2.917
	c0.786,0.786,1.715,1.178,2.786,1.178c1.063,0,1.997-0.4,2.799-1.202C208.464,163.039,208.825,162.36,208.976,161.575"/>
<path fill="#88868B" d="M219.217,154.681c1.738,0,3.199,0.595,4.382,1.786c1.183,1.19,1.774,2.607,1.774,4.251
	c0,1.627-0.592,3.038-1.774,4.233c-1.183,1.194-2.644,1.792-4.382,1.792c-1.723,0-3.183-0.598-4.376-1.792
	c-1.195-1.195-1.792-2.606-1.792-4.233c0-1.644,0.597-3.061,1.792-4.251C216.034,155.275,217.494,154.681,219.217,154.681
	 M216.431,157.776c-0.786,0.794-1.18,1.774-1.18,2.941c0,1.16,0.394,2.131,1.18,2.917c0.785,0.787,1.714,1.179,2.786,1.179
	c1.063,0,1.99-0.392,2.78-1.179c0.79-0.786,1.185-1.757,1.185-2.917c0-1.167-0.395-2.147-1.185-2.941s-1.717-1.189-2.78-1.189
	C218.145,156.587,217.216,156.982,216.431,157.776"/>
<rect x="276.197" y="160.827" fill="#00A5DE" width="3.729" height="13.569"/>
<path fill="#00A5DE" d="M272.197,162.195c-0.652,0-1.209,0.23-1.671,0.691c-0.461,0.451-0.692,1.001-0.692,1.654
	c0,0.641,0.231,1.192,0.692,1.654c0.462,0.461,1.019,0.691,1.671,0.691c0.642,0,1.188-0.23,1.637-0.691
	c0.462-0.462,0.692-1.014,0.692-1.654c0-0.653-0.23-1.203-0.692-1.654C273.385,162.426,272.839,162.195,272.197,162.195"/>
<path fill="#00A5DE" d="M284.112,151.005c-2.194,0-4.067,0.782-5.62,2.346c-1.53,1.541-2.295,3.409-2.295,5.604v9.324h3.73v-2.557
	c1.237,0.776,2.633,1.165,4.185,1.165c2.183,0,4.045-0.776,5.587-2.329c1.563-1.553,2.346-3.421,2.346-5.604
	c0-2.194-0.782-4.063-2.346-5.604C288.157,151.787,286.295,151.005,284.112,151.005 M287.05,161.891
	c-0.821,0.811-1.801,1.216-2.938,1.216c-1.146,0-2.132-0.405-2.953-1.216c-0.81-0.821-1.215-1.801-1.215-2.937
	c0-1.147,0.405-2.131,1.215-2.953c0.821-0.81,1.807-1.215,2.953-1.215c1.137,0,2.116,0.405,2.938,1.215
	c0.799,0.822,1.197,1.806,1.197,2.953C288.247,160.09,287.849,161.069,287.05,161.891"/>
<path fill="#00A5DE" d="M305.023,161.808c-0.394,0.404-0.844,0.72-1.35,0.944c-0.496,0.214-1.002,0.332-1.519,0.354h-0.17
	c-0.506,0-1.007-0.097-1.502-0.287c-0.394-0.157-0.766-0.376-1.113-0.658l10.633-4.675c-0.811-1.98-1.665-3.404-2.566-4.271
	c-0.753-0.709-1.608-1.254-2.564-1.637c-0.935-0.371-1.901-0.557-2.903-0.557H301.8c-1.035,0.034-2.031,0.265-2.987,0.691
	c-0.979,0.417-1.84,1.019-2.582,1.807c-0.697,0.741-1.237,1.598-1.62,2.564c-0.36,0.923-0.54,1.891-0.54,2.903v0.253
	c0.033,1.013,0.265,1.979,0.691,2.903c0.417,0.979,1.02,1.835,1.806,2.564c0.743,0.709,1.599,1.254,2.566,1.638
	c0.934,0.359,1.901,0.54,2.903,0.54h0.235c1.014-0.033,1.986-0.265,2.92-0.691c0.979-0.417,1.834-1.019,2.565-1.806
	c0.698-0.756,1.238-1.609,1.62-2.566l-3.51-1.35C305.654,160.958,305.372,161.402,305.023,161.808 M297.851,158.718
	c0.023-0.427,0.118-0.855,0.287-1.282c0.213-0.484,0.489-0.929,0.827-1.333c0.382-0.394,0.838-0.709,1.367-0.945
	c0.495-0.214,1.007-0.333,1.536-0.355h0.066c0.54,0,1.07,0.098,1.587,0.287c0.395,0.169,0.76,0.39,1.098,0.659L297.851,158.718z"/>
</svg>
